<?xml version="1.0" encoding="UTF-8"?>
<svg xmlns="http://www.w3.org/2000/svg" version="1.1" width="100" height="100" viewBox="0 0 100 100"><rect x="0" y="0" width="100" height="100" fill="#ffffff"/><g transform="scale(3.03)"><g transform="translate(0,0)"><path fill-rule="evenodd" d="M9 0L9 1L8 1L8 2L9 2L9 3L8 3L8 4L10 4L10 7L11 7L11 4L12 4L12 5L13 5L13 6L12 6L12 9L13 9L13 8L14 8L14 9L15 9L15 10L17 10L17 11L16 11L16 12L17 12L17 13L18 13L18 16L16 16L16 15L17 15L17 14L16 14L16 13L12 13L12 11L13 11L13 10L11 10L11 11L10 11L10 9L11 9L11 8L6 8L6 9L5 9L5 8L0 8L0 9L1 9L1 10L2 10L2 14L1 14L1 11L0 11L0 14L1 14L1 16L0 16L0 17L1 17L1 18L2 18L2 17L4 17L4 19L3 19L3 20L4 20L4 21L2 21L2 19L1 19L1 20L0 20L0 25L1 25L1 22L6 22L6 23L7 23L7 22L8 22L8 21L7 21L7 20L8 20L8 19L7 19L7 18L9 18L9 16L10 16L10 17L11 17L11 13L12 13L12 14L13 14L13 15L12 15L12 17L13 17L13 16L14 16L14 17L19 17L19 18L17 18L17 19L18 19L18 20L17 20L17 21L19 21L19 22L18 22L18 24L17 24L17 22L15 22L15 21L16 21L16 18L15 18L15 19L14 19L14 20L15 20L15 21L12 21L12 19L13 19L13 18L11 18L11 19L9 19L9 20L10 20L10 21L9 21L9 25L8 25L8 27L9 27L9 26L10 26L10 28L8 28L8 33L10 33L10 32L11 32L11 31L10 31L10 32L9 32L9 29L10 29L10 30L11 30L11 29L12 29L12 30L13 30L13 31L12 31L12 33L13 33L13 32L14 32L14 33L16 33L16 30L17 30L17 31L18 31L18 32L17 32L17 33L19 33L19 30L20 30L20 31L21 31L21 33L25 33L25 32L22 32L22 29L21 29L21 28L22 28L22 27L23 27L23 28L24 28L24 29L23 29L23 31L28 31L28 30L29 30L29 32L31 32L31 33L32 33L32 32L31 32L31 30L33 30L33 28L32 28L32 29L29 29L29 28L31 28L31 27L32 27L32 25L30 25L30 24L31 24L31 23L32 23L32 24L33 24L33 23L32 23L32 22L33 22L33 19L32 19L32 18L33 18L33 17L32 17L32 14L33 14L33 13L32 13L32 12L31 12L31 11L32 11L32 10L33 10L33 9L32 9L32 8L31 8L31 9L30 9L30 8L29 8L29 10L28 10L28 11L27 11L27 13L26 13L26 11L25 11L25 10L24 10L24 9L26 9L26 10L27 10L27 9L28 9L28 8L27 8L27 9L26 9L26 8L25 8L25 6L24 6L24 8L22 8L22 7L23 7L23 6L22 6L22 4L19 4L19 5L21 5L21 6L20 6L20 9L18 9L18 8L17 8L17 9L16 9L16 7L17 7L17 5L16 5L16 4L18 4L18 3L19 3L19 1L20 1L20 2L21 2L21 3L22 3L22 2L23 2L23 1L24 1L24 0L23 0L23 1L22 1L22 2L21 2L21 0L15 0L15 1L18 1L18 3L17 3L17 2L16 2L16 4L12 4L12 2L13 2L13 1L11 1L11 2L10 2L10 0ZM14 2L14 3L15 3L15 2ZM24 2L24 4L23 4L23 5L24 5L24 4L25 4L25 2ZM10 3L10 4L11 4L11 3ZM8 5L8 7L9 7L9 5ZM13 6L13 7L14 7L14 8L15 8L15 7L16 7L16 6L15 6L15 7L14 7L14 6ZM18 6L18 7L19 7L19 6ZM21 6L21 7L22 7L22 6ZM21 8L21 9L22 9L22 10L18 10L18 11L17 11L17 12L18 12L18 11L19 11L19 13L20 13L20 14L19 14L19 16L20 16L20 17L21 17L21 18L23 18L23 19L22 19L22 20L21 20L21 19L20 19L20 18L19 18L19 20L20 20L20 21L22 21L22 23L23 23L23 24L27 24L27 22L28 22L28 24L29 24L29 22L30 22L30 21L31 21L31 22L32 22L32 21L31 21L31 20L29 20L29 19L30 19L30 17L31 17L31 16L30 16L30 15L31 15L31 14L30 14L30 13L31 13L31 12L30 12L30 13L27 13L27 14L25 14L25 13L24 13L24 14L23 14L23 17L22 17L22 16L20 16L20 15L21 15L21 13L22 13L22 12L25 12L25 11L24 11L24 10L23 10L23 9L22 9L22 8ZM2 9L2 10L5 10L5 11L6 11L6 12L7 12L7 11L8 11L8 10L9 10L9 9L6 9L6 10L5 10L5 9ZM31 9L31 10L32 10L32 9ZM6 10L6 11L7 11L7 10ZM14 11L14 12L15 12L15 11ZM21 11L21 12L22 12L22 11ZM10 12L10 13L9 13L9 14L8 14L8 13L3 13L3 15L2 15L2 16L3 16L3 15L4 15L4 16L5 16L5 18L7 18L7 17L8 17L8 16L9 16L9 15L10 15L10 13L11 13L11 12ZM4 14L4 15L8 15L8 14ZM14 15L14 16L15 16L15 15ZM25 15L25 16L24 16L24 17L23 17L23 18L24 18L24 19L23 19L23 20L22 20L22 21L23 21L23 22L24 22L24 21L25 21L25 20L26 20L26 19L27 19L27 21L26 21L26 22L27 22L27 21L28 21L28 19L29 19L29 18L27 18L27 17L29 17L29 16L27 16L27 15ZM6 16L6 17L7 17L7 16ZM26 16L26 17L24 17L24 18L25 18L25 19L26 19L26 17L27 17L27 16ZM4 19L4 20L7 20L7 19ZM23 20L23 21L24 21L24 20ZM6 21L6 22L7 22L7 21ZM10 21L10 22L11 22L11 24L10 24L10 26L13 26L13 27L12 27L12 29L15 29L15 30L16 30L16 29L17 29L17 30L19 30L19 29L20 29L20 28L21 28L21 27L22 27L22 26L24 26L24 25L22 25L22 24L21 24L21 22L19 22L19 23L20 23L20 24L19 24L19 25L17 25L17 24L16 24L16 25L14 25L14 24L15 24L15 23L14 23L14 24L13 24L13 25L12 25L12 23L13 23L13 22L12 22L12 21ZM2 23L2 24L3 24L3 25L7 25L7 24L5 24L5 23ZM20 24L20 25L19 25L19 26L17 26L17 25L16 25L16 26L15 26L15 27L14 27L14 28L15 28L15 27L18 27L18 28L17 28L17 29L19 29L19 26L21 26L21 24ZM25 25L25 28L28 28L28 25ZM29 25L29 27L31 27L31 26L30 26L30 25ZM26 26L26 27L27 27L27 26ZM26 29L26 30L27 30L27 29ZM14 31L14 32L15 32L15 31ZM27 32L27 33L28 33L28 32ZM0 0L0 7L7 7L7 0ZM1 1L1 6L6 6L6 1ZM2 2L2 5L5 5L5 2ZM26 0L26 7L33 7L33 0ZM27 1L27 6L32 6L32 1ZM28 2L28 5L31 5L31 2ZM0 26L0 33L7 33L7 26ZM1 27L1 32L6 32L6 27ZM2 28L2 31L5 31L5 28Z" fill="#000000"/></g></g></svg>
