<?xml version="1.0" encoding="UTF-8"?>
<svg xmlns="http://www.w3.org/2000/svg" version="1.1" width="100" height="100" viewBox="0 0 100 100"><rect x="0" y="0" width="100" height="100" fill="#ffffff"/><g transform="scale(3.03)"><g transform="translate(0,0)"><path fill-rule="evenodd" d="M10 0L10 2L11 2L11 0ZM12 0L12 1L13 1L13 2L12 2L12 4L13 4L13 3L14 3L14 4L15 4L15 5L17 5L17 6L16 6L16 9L12 9L12 7L13 7L13 5L11 5L11 6L10 6L10 4L11 4L11 3L8 3L8 4L9 4L9 5L8 5L8 7L9 7L9 8L6 8L6 9L5 9L5 8L0 8L0 9L1 9L1 11L2 11L2 12L1 12L1 13L0 13L0 14L1 14L1 16L0 16L0 17L1 17L1 18L2 18L2 19L3 19L3 20L1 20L1 21L0 21L0 25L1 25L1 21L3 21L3 20L4 20L4 19L5 19L5 18L6 18L6 19L8 19L8 20L10 20L10 21L9 21L9 22L8 22L8 21L7 21L7 20L6 20L6 21L5 21L5 23L2 23L2 25L5 25L5 24L6 24L6 25L8 25L8 27L10 27L10 26L11 26L11 25L12 25L12 26L13 26L13 27L12 27L12 29L13 29L13 28L14 28L14 29L16 29L16 30L15 30L15 31L14 31L14 32L15 32L15 31L17 31L17 29L18 29L18 32L17 32L17 33L18 33L18 32L19 32L19 33L20 33L20 31L19 31L19 30L21 30L21 33L25 33L25 32L22 32L22 29L21 29L21 28L22 28L22 27L23 27L23 28L24 28L24 29L23 29L23 31L28 31L28 30L29 30L29 32L31 32L31 33L32 33L32 32L31 32L31 30L33 30L33 29L32 29L32 28L33 28L33 27L32 27L32 25L30 25L30 24L33 24L33 23L32 23L32 22L33 22L33 21L32 21L32 18L33 18L33 17L30 17L30 19L29 19L29 18L27 18L27 17L29 17L29 16L27 16L27 15L25 15L25 16L24 16L24 17L23 17L23 14L24 14L24 13L25 13L25 14L27 14L27 13L30 13L30 14L31 14L31 15L30 15L30 16L31 16L31 15L32 15L32 16L33 16L33 15L32 15L32 14L33 14L33 13L32 13L32 12L33 12L33 11L32 11L32 10L33 10L33 9L32 9L32 8L31 8L31 9L30 9L30 8L29 8L29 10L28 10L28 11L27 11L27 13L26 13L26 11L25 11L25 10L24 10L24 9L26 9L26 10L27 10L27 9L28 9L28 8L27 8L27 9L26 9L26 8L25 8L25 6L24 6L24 8L22 8L22 7L23 7L23 6L22 6L22 4L20 4L20 3L19 3L19 4L18 4L18 3L17 3L17 4L16 4L16 2L17 2L17 1L16 1L16 0ZM19 0L19 1L21 1L21 0ZM23 0L23 1L22 1L22 2L21 2L21 3L22 3L22 2L23 2L23 1L24 1L24 0ZM8 1L8 2L9 2L9 1ZM14 2L14 3L15 3L15 2ZM24 2L24 4L23 4L23 5L24 5L24 4L25 4L25 2ZM18 5L18 6L17 6L17 8L18 8L18 6L19 6L19 9L22 9L22 10L19 10L19 13L17 13L17 12L18 12L18 9L16 9L16 10L17 10L17 11L16 11L16 13L17 13L17 14L15 14L15 13L14 13L14 12L15 12L15 11L14 11L14 12L13 12L13 13L12 13L12 11L13 11L13 10L12 10L12 9L11 9L11 8L10 8L10 9L6 9L6 10L9 10L9 11L8 11L8 12L7 12L7 11L6 11L6 12L4 12L4 11L3 11L3 10L2 10L2 11L3 11L3 12L4 12L4 14L5 14L5 13L6 13L6 14L7 14L7 15L6 15L6 16L7 16L7 17L6 17L6 18L7 18L7 17L8 17L8 19L10 19L10 20L11 20L11 22L13 22L13 23L12 23L12 25L15 25L15 26L17 26L17 28L16 28L16 29L17 29L17 28L19 28L19 29L20 29L20 26L19 26L19 25L18 25L18 26L17 26L17 24L18 24L18 23L17 23L17 22L19 22L19 24L20 24L20 25L21 25L21 27L22 27L22 26L24 26L24 25L22 25L22 24L20 24L20 23L21 23L21 22L19 22L19 21L14 21L14 20L18 20L18 18L19 18L19 20L21 20L21 21L22 21L22 23L23 23L23 24L27 24L27 22L28 22L28 24L29 24L29 22L30 22L30 21L31 21L31 22L32 22L32 21L31 21L31 20L29 20L29 19L28 19L28 21L27 21L27 19L26 19L26 17L27 17L27 16L26 16L26 17L24 17L24 18L23 18L23 17L22 17L22 16L21 16L21 14L19 14L19 13L20 13L20 11L22 11L22 12L21 12L21 13L22 13L22 12L25 12L25 11L24 11L24 10L23 10L23 9L22 9L22 8L21 8L21 7L22 7L22 6L21 6L21 7L20 7L20 5ZM9 6L9 7L10 7L10 6ZM11 6L11 7L12 7L12 6ZM14 6L14 8L15 8L15 6ZM10 9L10 11L11 11L11 9ZM31 9L31 10L32 10L32 9ZM31 11L31 12L30 12L30 13L31 13L31 12L32 12L32 11ZM6 12L6 13L7 13L7 14L9 14L9 13L11 13L11 12L8 12L8 13L7 13L7 12ZM2 14L2 15L3 15L3 18L4 18L4 17L5 17L5 15L3 15L3 14ZM10 14L10 15L8 15L8 17L9 17L9 16L10 16L10 18L11 18L11 17L12 17L12 18L13 18L13 19L12 19L12 21L13 21L13 20L14 20L14 19L16 19L16 17L12 17L12 15L13 15L13 14ZM17 14L17 15L16 15L16 16L17 16L17 17L19 17L19 18L20 18L20 19L21 19L21 20L22 20L22 21L23 21L23 22L24 22L24 21L25 21L25 20L26 20L26 19L25 19L25 18L24 18L24 19L23 19L23 18L20 18L20 17L19 17L19 14ZM10 15L10 16L11 16L11 15ZM14 15L14 16L15 16L15 15ZM17 15L17 16L18 16L18 15ZM1 16L1 17L2 17L2 16ZM22 19L22 20L23 20L23 21L24 21L24 20L23 20L23 19ZM6 21L6 22L7 22L7 21ZM26 21L26 22L27 22L27 21ZM9 22L9 23L10 23L10 24L8 24L8 23L6 23L6 24L8 24L8 25L9 25L9 26L10 26L10 24L11 24L11 23L10 23L10 22ZM15 22L15 23L14 23L14 24L15 24L15 25L16 25L16 22ZM25 25L25 28L28 28L28 25ZM29 25L29 27L31 27L31 26L30 26L30 25ZM18 26L18 27L19 27L19 26ZM26 26L26 27L27 27L27 26ZM14 27L14 28L15 28L15 27ZM8 28L8 33L9 33L9 32L10 32L10 31L11 31L11 33L12 33L12 31L13 31L13 30L11 30L11 29L10 29L10 28ZM29 28L29 29L31 29L31 28ZM9 29L9 30L10 30L10 29ZM26 29L26 30L27 30L27 29ZM27 32L27 33L28 33L28 32ZM0 0L0 7L7 7L7 0ZM1 1L1 6L6 6L6 1ZM2 2L2 5L5 5L5 2ZM26 0L26 7L33 7L33 0ZM27 1L27 6L32 6L32 1ZM28 2L28 5L31 5L31 2ZM0 26L0 33L7 33L7 26ZM1 27L1 32L6 32L6 27ZM2 28L2 31L5 31L5 28Z" fill="#000000"/></g></g></svg>
