<?xml version="1.0" encoding="UTF-8"?>
<svg xmlns="http://www.w3.org/2000/svg" version="1.1" width="100" height="100" viewBox="0 0 100 100"><rect x="0" y="0" width="100" height="100" fill="#ffffff"/><g transform="scale(3.03)"><g transform="translate(0,0)"><path fill-rule="evenodd" d="M9 0L9 1L8 1L8 2L9 2L9 3L8 3L8 4L10 4L10 7L11 7L11 4L12 4L12 5L13 5L13 6L12 6L12 9L13 9L13 8L14 8L14 9L15 9L15 10L17 10L17 11L16 11L16 12L17 12L17 13L18 13L18 16L16 16L16 15L17 15L17 14L16 14L16 13L12 13L12 11L13 11L13 10L11 10L11 11L10 11L10 9L11 9L11 8L6 8L6 9L9 9L9 10L8 10L8 12L6 12L6 11L7 11L7 10L5 10L5 8L0 8L0 10L1 10L1 9L3 9L3 11L0 11L0 14L1 14L1 13L3 13L3 12L4 12L4 11L5 11L5 13L4 13L4 15L3 15L3 14L2 14L2 15L1 15L1 16L0 16L0 20L1 20L1 21L0 21L0 25L1 25L1 22L3 22L3 24L2 24L2 25L4 25L4 23L5 23L5 24L6 24L6 25L8 25L8 27L9 27L9 28L8 28L8 33L11 33L11 31L9 31L9 30L11 30L11 29L12 29L12 30L13 30L13 31L12 31L12 33L13 33L13 32L14 32L14 33L16 33L16 30L17 30L17 29L19 29L19 30L18 30L18 32L17 32L17 33L20 33L20 32L21 32L21 33L25 33L25 32L22 32L22 29L19 29L19 28L17 28L17 29L16 29L16 30L15 30L15 29L12 29L12 27L13 27L13 26L11 26L11 24L10 24L10 22L11 22L11 21L12 21L12 22L13 22L13 23L12 23L12 25L13 25L13 24L14 24L14 25L16 25L16 26L15 26L15 27L14 27L14 28L15 28L15 27L19 27L19 26L20 26L20 27L21 27L21 28L22 28L22 27L23 27L23 28L24 28L24 29L23 29L23 31L28 31L28 30L29 30L29 32L31 32L31 33L32 33L32 32L31 32L31 30L33 30L33 28L32 28L32 29L29 29L29 28L31 28L31 27L32 27L32 25L30 25L30 24L33 24L33 23L32 23L32 22L33 22L33 21L32 21L32 20L33 20L33 19L32 19L32 18L33 18L33 16L32 16L32 14L33 14L33 13L32 13L32 12L31 12L31 11L32 11L32 10L33 10L33 9L32 9L32 8L31 8L31 9L30 9L30 8L29 8L29 9L30 9L30 10L28 10L28 11L27 11L27 13L26 13L26 11L25 11L25 10L24 10L24 9L26 9L26 10L27 10L27 9L28 9L28 8L27 8L27 9L26 9L26 8L25 8L25 6L24 6L24 8L22 8L22 7L23 7L23 6L22 6L22 4L19 4L19 5L21 5L21 6L20 6L20 9L18 9L18 8L17 8L17 9L16 9L16 7L17 7L17 5L16 5L16 4L18 4L18 3L19 3L19 1L20 1L20 2L21 2L21 3L22 3L22 2L23 2L23 1L24 1L24 0L23 0L23 1L22 1L22 2L21 2L21 0L15 0L15 1L18 1L18 3L17 3L17 2L16 2L16 4L12 4L12 2L13 2L13 1L11 1L11 2L10 2L10 0ZM14 2L14 3L15 3L15 2ZM24 2L24 4L23 4L23 5L24 5L24 4L25 4L25 2ZM10 3L10 4L11 4L11 3ZM8 5L8 7L9 7L9 5ZM13 6L13 7L14 7L14 8L15 8L15 7L16 7L16 6L15 6L15 7L14 7L14 6ZM18 6L18 7L19 7L19 6ZM21 6L21 7L22 7L22 6ZM21 8L21 9L22 9L22 10L18 10L18 11L17 11L17 12L18 12L18 11L19 11L19 13L20 13L20 14L19 14L19 16L20 16L20 17L21 17L21 18L23 18L23 19L22 19L22 20L21 20L21 19L20 19L20 18L19 18L19 17L14 17L14 16L15 16L15 15L14 15L14 16L13 16L13 17L12 17L12 15L13 15L13 14L12 14L12 13L11 13L11 12L10 12L10 13L11 13L11 15L10 15L10 14L9 14L9 16L8 16L8 15L5 15L5 16L8 16L8 18L9 18L9 20L8 20L8 19L6 19L6 18L7 18L7 17L5 17L5 19L4 19L4 16L1 16L1 18L2 18L2 19L3 19L3 21L4 21L4 22L5 22L5 23L6 23L6 24L7 24L7 23L9 23L9 21L10 21L10 20L11 20L11 19L10 19L10 18L9 18L9 16L10 16L10 17L11 17L11 18L13 18L13 19L12 19L12 21L15 21L15 22L17 22L17 24L16 24L16 25L17 25L17 26L19 26L19 25L20 25L20 24L21 24L21 27L22 27L22 26L24 26L24 25L22 25L22 24L21 24L21 22L19 22L19 21L22 21L22 23L23 23L23 24L27 24L27 22L28 22L28 24L29 24L29 22L30 22L30 21L31 21L31 20L29 20L29 19L30 19L30 17L31 17L31 18L32 18L32 16L30 16L30 14L31 14L31 12L29 12L29 13L27 13L27 14L25 14L25 13L24 13L24 14L23 14L23 17L22 17L22 16L21 16L21 13L22 13L22 12L25 12L25 11L24 11L24 10L23 10L23 9L22 9L22 8ZM31 9L31 10L30 10L30 11L31 11L31 10L32 10L32 9ZM14 11L14 12L15 12L15 11ZM21 11L21 12L22 12L22 11ZM8 12L8 13L9 13L9 12ZM6 13L6 14L7 14L7 13ZM25 15L25 16L24 16L24 17L23 17L23 18L24 18L24 19L23 19L23 20L22 20L22 21L23 21L23 22L24 22L24 21L25 21L25 20L26 20L26 19L27 19L27 21L26 21L26 22L27 22L27 21L28 21L28 19L29 19L29 18L27 18L27 17L29 17L29 16L27 16L27 15ZM26 16L26 17L24 17L24 18L25 18L25 19L26 19L26 17L27 17L27 16ZM15 18L15 19L14 19L14 20L15 20L15 21L16 21L16 18ZM17 18L17 19L18 19L18 20L17 20L17 21L19 21L19 20L20 20L20 19L19 19L19 18ZM5 19L5 22L6 22L6 23L7 23L7 22L6 22L6 21L7 21L7 20L6 20L6 19ZM23 20L23 21L24 21L24 20ZM18 22L18 24L17 24L17 25L19 25L19 24L20 24L20 23L19 23L19 22ZM14 23L14 24L15 24L15 23ZM25 25L25 28L28 28L28 25ZM29 25L29 27L31 27L31 26L30 26L30 25ZM9 26L9 27L10 27L10 26ZM26 26L26 27L27 27L27 26ZM10 28L10 29L11 29L11 28ZM26 29L26 30L27 30L27 29ZM19 30L19 32L20 32L20 30ZM14 31L14 32L15 32L15 31ZM27 32L27 33L28 33L28 32ZM0 0L0 7L7 7L7 0ZM1 1L1 6L6 6L6 1ZM2 2L2 5L5 5L5 2ZM26 0L26 7L33 7L33 0ZM27 1L27 6L32 6L32 1ZM28 2L28 5L31 5L31 2ZM0 26L0 33L7 33L7 26ZM1 27L1 32L6 32L6 27ZM2 28L2 31L5 31L5 28Z" fill="#000000"/></g></g></svg>
