<?xml version="1.0" encoding="UTF-8"?>
<svg xmlns="http://www.w3.org/2000/svg" version="1.1" width="100" height="100" viewBox="0 0 100 100"><rect x="0" y="0" width="100" height="100" fill="#ffffff"/><g transform="scale(3.03)"><g transform="translate(0,0)"><path fill-rule="evenodd" d="M9 0L9 1L8 1L8 2L9 2L9 3L8 3L8 4L10 4L10 7L11 7L11 4L12 4L12 5L13 5L13 6L12 6L12 9L13 9L13 8L14 8L14 9L15 9L15 10L17 10L17 11L16 11L16 12L17 12L17 13L18 13L18 16L16 16L16 15L17 15L17 14L16 14L16 13L12 13L12 11L13 11L13 10L11 10L11 11L10 11L10 9L11 9L11 8L6 8L6 9L5 9L5 8L0 8L0 9L1 9L1 10L0 10L0 11L1 11L1 10L2 10L2 12L1 12L1 13L0 13L0 15L1 15L1 16L0 16L0 17L1 17L1 18L0 18L0 19L4 19L4 20L3 20L3 21L4 21L4 20L5 20L5 22L4 22L4 23L5 23L5 24L6 24L6 25L7 25L7 24L6 24L6 23L7 23L7 22L6 22L6 21L9 21L9 20L8 20L8 19L9 19L9 18L10 18L10 19L11 19L11 20L10 20L10 21L12 21L12 22L13 22L13 23L12 23L12 25L13 25L13 24L14 24L14 25L16 25L16 26L15 26L15 27L14 27L14 28L15 28L15 27L18 27L18 28L17 28L17 29L16 29L16 30L15 30L15 29L12 29L12 27L13 27L13 26L11 26L11 24L9 24L9 23L10 23L10 22L8 22L8 24L9 24L9 25L8 25L8 27L10 27L10 28L11 28L11 29L9 29L9 28L8 28L8 33L9 33L9 32L10 32L10 31L11 31L11 29L12 29L12 30L13 30L13 31L12 31L12 33L13 33L13 32L14 32L14 33L16 33L16 30L17 30L17 31L18 31L18 32L17 32L17 33L19 33L19 30L17 30L17 29L20 29L20 30L21 30L21 29L20 29L20 27L19 27L19 26L21 26L21 28L22 28L22 29L23 29L23 28L24 28L24 31L23 31L23 30L22 30L22 31L21 31L21 32L22 32L22 31L23 31L23 33L25 33L25 32L24 32L24 31L25 31L25 29L27 29L27 30L26 30L26 31L28 31L28 30L29 30L29 32L31 32L31 33L32 33L32 32L31 32L31 30L33 30L33 28L32 28L32 29L29 29L29 28L31 28L31 27L32 27L32 25L30 25L30 24L33 24L33 23L32 23L32 22L33 22L33 21L32 21L32 20L33 20L33 19L32 19L32 18L33 18L33 16L32 16L32 14L33 14L33 13L32 13L32 12L31 12L31 11L32 11L32 10L33 10L33 9L32 9L32 8L31 8L31 9L30 9L30 8L29 8L29 9L30 9L30 10L28 10L28 11L27 11L27 13L26 13L26 11L25 11L25 12L24 12L24 13L23 13L23 12L22 12L22 9L21 9L21 8L22 8L22 7L23 7L23 5L24 5L24 7L25 7L25 5L24 5L24 4L25 4L25 2L24 2L24 3L23 3L23 2L22 2L22 0L15 0L15 1L18 1L18 3L17 3L17 2L16 2L16 4L12 4L12 2L13 2L13 1L11 1L11 2L10 2L10 0ZM23 0L23 1L24 1L24 0ZM19 1L19 3L18 3L18 4L16 4L16 5L17 5L17 7L16 7L16 6L15 6L15 7L14 7L14 6L13 6L13 7L14 7L14 8L15 8L15 7L16 7L16 9L17 9L17 8L18 8L18 9L20 9L20 6L21 6L21 7L22 7L22 5L23 5L23 4L22 4L22 3L21 3L21 2L20 2L20 1ZM14 2L14 3L15 3L15 2ZM10 3L10 4L11 4L11 3ZM19 4L19 5L21 5L21 4ZM8 5L8 7L9 7L9 5ZM18 6L18 7L19 7L19 6ZM23 8L23 10L24 10L24 9L26 9L26 10L27 10L27 9L28 9L28 8L27 8L27 9L26 9L26 8ZM3 9L3 10L4 10L4 11L3 11L3 12L2 12L2 13L3 13L3 12L4 12L4 14L3 14L3 16L1 16L1 17L2 17L2 18L3 18L3 17L4 17L4 18L5 18L5 20L7 20L7 19L6 19L6 18L7 18L7 17L9 17L9 16L10 16L10 14L9 14L9 13L6 13L6 12L9 12L9 9L6 9L6 10L4 10L4 9ZM31 9L31 10L30 10L30 11L31 11L31 10L32 10L32 9ZM6 10L6 11L4 11L4 12L6 12L6 11L8 11L8 10ZM18 10L18 11L17 11L17 12L18 12L18 11L19 11L19 13L20 13L20 14L19 14L19 16L21 16L21 17L22 17L22 16L23 16L23 17L24 17L24 18L23 18L23 20L26 20L26 21L24 21L24 22L23 22L23 21L22 21L22 20L20 20L20 19L21 19L21 18L19 18L19 17L14 17L14 16L15 16L15 15L14 15L14 16L13 16L13 17L12 17L12 15L13 15L13 14L12 14L12 13L11 13L11 12L10 12L10 13L11 13L11 18L13 18L13 19L12 19L12 21L15 21L15 22L17 22L17 24L16 24L16 25L17 25L17 26L19 26L19 25L20 25L20 22L19 22L19 21L17 21L17 20L18 20L18 19L17 19L17 18L19 18L19 20L20 20L20 21L21 21L21 22L23 22L23 23L22 23L22 24L21 24L21 25L22 25L22 27L23 27L23 26L24 26L24 24L25 24L25 23L26 23L26 24L27 24L27 22L28 22L28 24L29 24L29 22L30 22L30 21L31 21L31 20L28 20L28 21L27 21L27 18L29 18L29 19L30 19L30 17L31 17L31 18L32 18L32 16L30 16L30 14L31 14L31 12L29 12L29 13L27 13L27 14L25 14L25 13L24 13L24 14L23 14L23 13L22 13L22 12L21 12L21 10ZM14 11L14 12L15 12L15 11ZM21 13L21 14L20 14L20 15L21 15L21 16L22 16L22 15L21 15L21 14L22 14L22 13ZM4 14L4 15L7 15L7 14ZM8 14L8 15L9 15L9 14ZM24 14L24 15L23 15L23 16L24 16L24 17L25 17L25 19L26 19L26 18L27 18L27 17L29 17L29 16L28 16L28 15L26 15L26 16L25 16L25 14ZM4 16L4 17L7 17L7 16ZM26 16L26 17L27 17L27 16ZM15 18L15 19L14 19L14 20L15 20L15 21L16 21L16 18ZM0 20L0 25L1 25L1 22L2 22L2 23L3 23L3 22L2 22L2 21L1 21L1 20ZM26 21L26 22L27 22L27 21ZM18 22L18 24L17 24L17 25L19 25L19 22ZM14 23L14 24L15 24L15 23ZM2 24L2 25L3 25L3 24ZM22 24L22 25L23 25L23 24ZM9 25L9 26L10 26L10 27L11 27L11 26L10 26L10 25ZM25 25L25 28L28 28L28 25ZM29 25L29 27L31 27L31 26L30 26L30 25ZM26 26L26 27L27 27L27 26ZM14 31L14 32L15 32L15 31ZM27 32L27 33L28 33L28 32ZM0 0L0 7L7 7L7 0ZM1 1L1 6L6 6L6 1ZM2 2L2 5L5 5L5 2ZM26 0L26 7L33 7L33 0ZM27 1L27 6L32 6L32 1ZM28 2L28 5L31 5L31 2ZM0 26L0 33L7 33L7 26ZM1 27L1 32L6 32L6 27ZM2 28L2 31L5 31L5 28Z" fill="#000000"/></g></g></svg>
